<?xml version="1.0" standalone="no"?>
<!DOCTYPE svg PUBLIC "-//W3C//DTD SVG 20010904//EN"
 "http://www.w3.org/TR/2001/REC-SVG-20010904/DTD/svg10.dtd">
<svg version="1.0" xmlns="http://www.w3.org/2000/svg"
 width="952.000000pt" height="952.000000pt" viewBox="0 0 952.000000 952.000000"
 preserveAspectRatio="xMidYMid meet">

<g transform="translate(0.000000,952.000000) scale(0.100000,-0.100000)"
fill="#ffffff" stroke="none">
<path d="M4430 9514 c-19 -2 -87 -9 -150 -15 -893 -82 -1780 -445 -2505 -1025
-190 -152 -534 -491 -687 -676 -529 -642 -884 -1413 -1022 -2218 -52 -305 -61
-418 -61 -820 0 -401 9 -513 61 -820 255 -1499 1244 -2809 2619 -3471 436
-209 880 -348 1340 -418 278 -42 343 -46 735 -46 392 0 457 4 735 46 2037 309
3665 1937 3974 3974 42 279 46 342 46 735 0 413 -7 510 -61 825 -145 842 -536
1662 -1101 2305 -798 908 -1851 1462 -3058 1605 -132 16 -768 30 -865 19z
m605 -229 c144 -7 328 -28 490 -55 123 -21 383 -78 399 -87 4 -3 -33 -27 -84
-54 -116 -61 -218 -132 -397 -276 l-142 -114 -178 12 c-715 47 -1498 -124
-2194 -477 l-167 -85 -263 90 c-145 49 -303 102 -352 118 l-87 28 97 76 c469
364 1164 653 1848 769 364 61 612 74 1030 55z m214 -894 l74 -9 565 -565 566
-566 -404 -1103 c-222 -607 -405 -1105 -407 -1107 -4 -6 -1903 -370 -1929
-371 -19 0 -550 541 -1553 1583 l-75 77 19 98 c66 358 252 786 511 1179 l93
141 93 58 c125 78 404 220 558 285 409 171 857 278 1315 313 79 6 492 -3 574
-13z m2501 -226 c589 -515 1053 -1208 1305 -1948 20 -60 35 -111 32 -113 -3
-3 -23 29 -46 71 -65 118 -233 364 -340 498 -175 219 -355 405 -591 609 -65
56 -66 57 -88 148 -62 256 -202 536 -399 797 l-95 126 54 -44 c29 -24 105 -88
168 -144z m-411 -1070 l543 -34 47 -37 c95 -77 421 -414 520 -539 245 -308
445 -659 576 -1009 l37 -100 -22 -160 c-88 -652 -263 -1240 -481 -1616 -34
-58 -62 -106 -63 -107 -3 -4 -1668 -155 -1670 -151 -2 1 -204 356 -450 787
l-448 784 393 1071 c215 589 398 1088 407 1109 11 30 19 37 41 37 14 0 271
-16 570 -35z m-6727 -782 c-2 -159 1 -337 6 -398 l9 -110 -44 -125 c-173 -483
-253 -987 -240 -1509 l5 -214 -39 82 c-33 70 -41 101 -55 214 -22 176 -30 659
-15 854 39 493 152 958 346 1426 16 37 29 67 29 67 1 0 0 -129 -2 -287z m2003
-979 c402 -415 755 -782 786 -817 l57 -62 -83 -888 c-45 -488 -84 -889 -86
-891 -2 -2 -349 -118 -771 -259 l-767 -255 -48 36 c-253 190 -571 525 -811
855 -100 137 -101 139 -126 245 -82 346 -110 595 -110 977 0 312 10 434 55
690 37 204 150 605 176 624 5 3 42 31 83 62 144 107 363 230 560 314 104 45
324 124 340 124 8 -1 344 -340 745 -755z m5907 -2564 c20 -223 37 -424 37
-447 1 -37 -10 -56 -103 -186 -260 -364 -517 -643 -801 -870 -354 -284 -663
-399 -1400 -521 -253 -42 -442 -69 -457 -64 -6 2 -66 233 -134 513 l-123 508
97 102 c53 56 339 353 635 661 l537 560 693 63 c380 35 746 69 812 76 66 7
131 12 145 11 l25 -1 37 -405z m-4198 -754 c478 -207 880 -382 894 -389 23
-11 32 -43 143 -502 65 -269 121 -500 124 -511 4 -19 -6 -27 -78 -62 -250
-121 -712 -206 -1317 -242 -164 -9 -166 -9 -300 21 -647 146 -1227 413 -1746
802 l-120 91 -17 240 c-10 133 -20 280 -23 327 l-6 87 778 260 c429 143 784
259 789 257 6 -1 401 -172 879 -379z"/>
</g>
</svg>
