<?xml version="1.0" encoding="utf-8"?>
<!-- Svg Vector Icons : http://www.onlinewebfonts.com/icon -->
<!DOCTYPE svg PUBLIC "-//W3C//DTD SVG 1.1//EN" "http://www.w3.org/Graphics/SVG/1.1/DTD/svg11.dtd">
<svg version="1.1" xmlns="http://www.w3.org/2000/svg" xmlns:xlink="http://www.w3.org/1999/xlink" x="0px" y="0px" viewBox="0 0 1000 1000" enable-background="new 0 0 1000 1000" xml:space="preserve">
<metadata> Svg Vector Icons : http://www.onlinewebfonts.com/icon </metadata>
<g><g><path d="M521.3,286.9h-42.6V116.5h42.6V286.9z M990,499.9l-345.1,72.4c4.2,17.2,4.2,38.3,4.2,55.5c0,140.6-115,255.8-255.7,255.8c-119.2,0-217.2-80.9-247.1-187.4c-12.7,8.5-29.9,16.9-51.2,16.9C48.3,713.1,10,674.8,10,628c0-46.8,38.3-85.1,85.1-85.1c21.4,0,38.3,8.5,51.2,16.9c29.9-106.5,127.9-187.4,247.1-187.4H436v85.1h127.9v-85.1h426v127.4H990z M137.9,627.8c0-25.6-17.2-42.5-42.6-42.5c-25.4,0-42.5,16.9-42.5,42.5c0,25.6,17.2,42.5,42.5,42.5C120.7,670.3,137.9,653.4,137.9,627.8z M947.5,414.8H606.6v85.1h-213v-85.1c-12.7,0-29.9,0-42.6,4.2c-98,21.4-170.4,106.5-170.4,208.7c0,119.2,93.8,213,213,213s213-93.8,213-213c0-29.9-4.2-59.7-16.9-85.1L947.5,466V414.8z M733.1,183.5L697,160.8l-90.2,144.6l36.1,22.5L733.1,183.5z M391.8,305.4l-90.2-144.6l-36.1,22.7l90.2,144.6L391.8,305.4z"/></g><g></g><g></g><g></g><g></g><g></g><g></g><g></g><g></g><g></g><g></g><g></g><g></g><g></g><g></g><g></g></g>
</svg>